<?xml version="1.0" encoding="utf-8"?>
<!-- Generator: Adobe Illustrator 16.0.0, SVG Export Plug-In . SVG Version: 6.00 Build 0)  -->
<!DOCTYPE svg PUBLIC "-//W3C//DTD SVG 1.0//EN" "http://www.w3.org/TR/2001/REC-SVG-20010904/DTD/svg10.dtd">
<svg version="1.0" id="Layer_1" xmlns="http://www.w3.org/2000/svg" xmlns:xlink="http://www.w3.org/1999/xlink" x="0px" y="0px"
	 width="224px" height="64px" viewBox="0 0 224 64" enable-background="new 0 0 224 64" xml:space="preserve">
<g>
	<path fill="#A2C5DA" d="M33.412,21.959c3.443-4.372,6.885-8.744,10.328-13.116c6.531,0.315,13.061,0.631,19.591,0.946
		c5.011,8.465,10.022,16.931,15.033,25.396C63.38,30.777,48.395,26.368,33.412,21.959"/>
	
		<path fill="none" stroke="#FFFFFF" stroke-width="2.765" stroke-linecap="round" stroke-linejoin="round" stroke-miterlimit="10" d="
		M33.412,21.959c3.443-4.372,6.885-8.744,10.328-13.116c6.531,0.315,13.061,0.631,19.591,0.946
		c5.011,8.465,10.022,16.931,15.033,25.396C63.38,30.777,48.395,26.368,33.412,21.959z"/>
	<path fill="#BAD539" d="M9.823,22.046C9.791,34.609,9.757,47.173,9.726,59.736c19.849,0.057,39.696,0.113,59.545,0.171
		c-0.034-6.863-0.069-13.726-0.104-20.589C49.384,33.56,29.605,27.804,9.823,22.046"/>
	
		<path fill="none" stroke="#FFFFFF" stroke-width="2.765" stroke-linecap="round" stroke-linejoin="round" stroke-miterlimit="10" d="
		M9.823,22.046C9.791,34.609,9.757,47.173,9.726,59.736c19.849,0.057,39.696,0.113,59.545,0.171
		c-0.034-6.863-0.069-13.726-0.104-20.589C49.384,33.56,29.605,27.804,9.823,22.046z"/>
</g>
<path fill="none" stroke="#FFFFFF" stroke-width="1.383" stroke-linecap="round" stroke-linejoin="round" stroke-miterlimit="10" d="
	M77.459,36.569"/>
<polyline fill="none" stroke="#3D3D3C" stroke-width="1.383" stroke-linecap="round" stroke-linejoin="round" stroke-miterlimit="10" points="
	8.743,20.735 8.663,61.217 70.945,61.217 70.945,38.771 "/>
<line fill="none" stroke="#3D3D3C" stroke-width="1.383" stroke-linecap="round" stroke-linejoin="round" stroke-miterlimit="10" x1="70.944" y1="38.772" x2="1.422" y2="17.903"/>
<polyline fill="none" stroke="#3D3D3C" stroke-width="1.383" stroke-linecap="round" stroke-linejoin="round" stroke-miterlimit="10" points="
	30.746,22.56 46.509,1.689 60.963,1.689 82.481,38.293 1.422,14.07 "/>
<line fill="none" stroke="#3D3D3C" stroke-width="1.383" stroke-linecap="round" stroke-linejoin="round" stroke-miterlimit="10" x1="55.922" y1="40.232" x2="55.922" y2="60.396"/>
<line fill="none" stroke="#3D3D3C" stroke-width="1.383" stroke-linecap="round" stroke-linejoin="round" stroke-miterlimit="10" x1="21.959" y1="40.232" x2="21.959" y2="60.396"/>
<line fill="none" stroke="#3D3D3C" stroke-width="1.383" stroke-linecap="round" stroke-linejoin="round" stroke-miterlimit="10" x1="38.593" y1="40.155" x2="38.593" y2="60.396"/>
<line fill="none" stroke="#3D3D3C" stroke-width="1.383" stroke-linecap="round" stroke-linejoin="round" stroke-miterlimit="10" x1="70.253" y1="39.71" x2="8.743" y2="39.693"/>
<g>
	<path fill="#3D3D3C" d="M216.401,40.025l2.005-4.617l2.005,4.617H216.401z M218.783,34.547c-0.081-0.175-0.188-0.269-0.377-0.269
		s-0.296,0.094-0.377,0.269l-3.741,8.356c-0.027,0.055-0.054,0.121-0.054,0.188c0,0.202,0.147,0.364,0.39,0.364
		c0.202,0,0.311-0.121,0.364-0.256l1.103-2.463h4.631l1.103,2.463c0.054,0.135,0.162,0.256,0.363,0.256
		c0.243,0,0.391-0.162,0.391-0.364c0-0.067-0.026-0.134-0.054-0.188L218.783,34.547z M208.744,43.052v-8.37
		c0-0.229-0.175-0.403-0.403-0.403c-0.229,0-0.404,0.174-0.404,0.403v8.37c0,0.229,0.175,0.404,0.404,0.404
		C208.569,43.457,208.744,43.281,208.744,43.052 M201.369,36.875c0,1.022-0.673,1.763-1.79,1.763h-3.619v-3.525h3.619
		C200.696,35.113,201.369,35.852,201.369,36.875 M202.177,36.875c0-1.427-0.982-2.49-2.758-2.49h-3.863
		c-0.215,0-0.403,0.175-0.403,0.404v8.263c0,0.229,0.175,0.404,0.403,0.404c0.242,0,0.404-0.176,0.404-0.404v-3.688h3.323
		l1.897,3.862c0.082,0.148,0.176,0.229,0.377,0.229c0.229,0,0.391-0.189,0.391-0.391c0-0.067-0.027-0.135-0.054-0.188l-1.749-3.58
		C201.464,39.055,202.177,38.1,202.177,36.875 M183.552,40.025l2.006-4.617l2.005,4.617H183.552z M185.935,34.547
		c-0.081-0.175-0.188-0.269-0.377-0.269s-0.297,0.094-0.377,0.269l-3.741,8.356c-0.027,0.055-0.054,0.121-0.054,0.188
		c0,0.202,0.148,0.364,0.391,0.364c0.202,0,0.309-0.121,0.363-0.256l1.104-2.463h4.629l1.104,2.463
		c0.054,0.135,0.162,0.256,0.363,0.256c0.242,0,0.391-0.162,0.391-0.364c0-0.067-0.027-0.134-0.055-0.188L185.935,34.547z
		 M175.896,43.052v-8.37c0-0.229-0.176-0.403-0.404-0.403s-0.402,0.174-0.402,0.403v8.37c0,0.229,0.174,0.404,0.402,0.404
		S175.896,43.281,175.896,43.052 M164.591,42.622v-7.939c0-0.229-0.174-0.403-0.403-0.403c-0.228,0-0.403,0.174-0.403,0.403v8.263
		c0,0.229,0.176,0.403,0.403,0.403h5.222c0.202,0,0.363-0.161,0.363-0.362c0-0.203-0.161-0.364-0.363-0.364H164.591z
		 M157.661,43.052v-8.37c0-0.229-0.175-0.403-0.404-0.403c-0.229,0-0.403,0.174-0.403,0.403v8.37c0,0.229,0.175,0.404,0.403,0.404
		C157.486,43.457,157.661,43.281,157.661,43.052 M148.376,38.974c1.373,0,2.221,0.674,2.221,1.831c0,1.022-0.728,1.843-2.18,1.843
		h-3.029v-3.674H148.376z M149.884,36.673c0,0.848-0.633,1.602-1.764,1.602h-2.732v-3.189h2.664
		C149.169,35.085,149.884,35.637,149.884,36.673 M151.403,40.885c0-1.386-0.955-2.166-2.1-2.354
		c0.996-0.403,1.387-1.022,1.387-1.938c0-1.359-1.117-2.208-2.651-2.208h-3.055c-0.256,0-0.404,0.175-0.404,0.404v8.155
		c0,0.215,0.175,0.403,0.404,0.403h3.378C150.395,43.348,151.403,42.15,151.403,40.885 M138.296,38.867
		c0,2.06-1.373,3.93-3.687,3.93c-2.315,0-3.714-1.87-3.714-3.93c0-2.059,1.398-3.93,3.714-3.93
		C136.923,34.937,138.296,36.808,138.296,38.867 M139.104,38.867c0-2.502-1.805-4.643-4.495-4.643c-2.692,0-4.522,2.141-4.522,4.643
		c0,2.504,1.83,4.644,4.522,4.644C137.3,43.51,139.104,41.371,139.104,38.867 M120.196,42.326l-3.646-7.791
		c-0.08-0.162-0.176-0.256-0.377-0.256c-0.229,0-0.391,0.16-0.391,0.39v8.397c0,0.215,0.148,0.391,0.391,0.391
		c0.215,0,0.377-0.176,0.377-0.391v-6.863l3.27,7.011c0.068,0.147,0.175,0.243,0.377,0.243s0.311-0.096,0.377-0.243l3.27-7.011
		v6.863c0,0.215,0.162,0.391,0.377,0.391c0.242,0,0.391-0.176,0.391-0.391v-8.397c0-0.229-0.161-0.39-0.391-0.39
		c-0.201,0-0.295,0.094-0.377,0.256L120.196,42.326z M109.728,43.08v-8.411c0-0.216-0.148-0.39-0.377-0.39s-0.39,0.16-0.39,0.39
		v7.321l-5.693-7.537c-0.067-0.094-0.175-0.174-0.309-0.174c-0.243,0-0.404,0.16-0.404,0.39v8.411c0,0.201,0.161,0.377,0.39,0.377
		c0.216,0,0.377-0.176,0.377-0.377v-7.321l5.706,7.522c0.081,0.107,0.161,0.176,0.309,0.176
		C109.592,43.457,109.728,43.281,109.728,43.08 M96.431,43.052v-8.37c0-0.229-0.175-0.403-0.404-0.403
		c-0.228,0-0.403,0.174-0.403,0.403v8.37c0,0.229,0.175,0.404,0.403,0.404C96.256,43.457,96.431,43.281,96.431,43.052"/>
	<path fill="#3D3D3C" d="M220.099,57.005c0,1.954-1.277,3.615-3.369,3.615s-3.368-1.661-3.368-3.615
		c0-1.953,1.276-3.614,3.368-3.614S220.099,55.052,220.099,57.005 M221.989,57.005c0-2.968-2.245-5.307-5.26-5.307
		c-3.014,0-5.26,2.339-5.26,5.307c0,2.969,2.246,5.306,5.26,5.306C219.744,62.311,221.989,59.974,221.989,57.005 M206.856,52.777
		c0-0.492-0.4-0.893-0.893-0.893h-7.151c-0.507,0-0.892,0.4-0.892,0.893c0,0.477,0.399,0.877,0.892,0.877h2.646v7.643
		c0,0.523,0.399,0.954,0.922,0.954c0.523,0,0.955-0.431,0.955-0.954v-7.643h2.629C206.472,53.654,206.856,53.253,206.856,52.777
		 M191.03,58.22h-3.199l1.6-3.906L191.03,58.22z M192.585,61.742c0.168,0.324,0.383,0.509,0.783,0.509
		c0.555,0,0.893-0.431,0.893-0.877c0-0.123-0.031-0.246-0.092-0.369l-3.938-8.751c-0.138-0.323-0.399-0.492-0.8-0.492
		c-0.399,0-0.661,0.184-0.799,0.492l-3.938,8.751c-0.062,0.123-0.094,0.246-0.094,0.369c0,0.446,0.34,0.877,0.894,0.877
		c0.399,0,0.615-0.2,0.784-0.509l0.877-1.875h4.552L192.585,61.742z M179.02,59.867v-2.445c0-0.523-0.415-0.954-0.954-0.954h-2.891
		c-0.463,0-0.861,0.354-0.861,0.847c0,0.477,0.398,0.846,0.861,0.846h1.998v1.584c-0.6,0.554-1.521,0.923-2.567,0.923
		c-2.138,0-3.368-1.569-3.368-3.661c0-2.045,1.322-3.568,3.337-3.568c1.046,0,1.677,0.4,2.261,0.846c0.2,0.14,0.4,0.217,0.615,0.217
		c0.523,0,0.846-0.4,0.846-0.862c0-0.246-0.107-0.446-0.291-0.63c-0.877-0.908-2.23-1.309-3.431-1.309
		c-2.983,0-5.229,2.201-5.229,5.307c0,2.907,1.984,5.306,5.261,5.306c1.538,0,3.198-0.599,4.198-1.845
		C178.957,60.266,179.02,60.127,179.02,59.867 M163.193,61.374v-8.72c0-0.478-0.369-0.893-0.892-0.893
		c-0.523,0-0.877,0.415-0.877,0.893v6.136l-5.306-6.705c-0.139-0.185-0.399-0.323-0.646-0.323c-0.569,0-0.924,0.415-0.924,0.893
		v8.72c0,0.477,0.4,0.877,0.877,0.877c0.492,0,0.893-0.386,0.893-0.877v-6.152l5.307,6.706c0.168,0.215,0.383,0.323,0.676,0.323
		C162.824,62.25,163.193,61.85,163.193,61.374 M145.968,58.191c0,1.43-0.86,2.43-2.506,2.43s-2.507-1-2.507-2.43v-5.477
		c0-0.521-0.416-0.953-0.938-0.953c-0.523,0-0.938,0.432-0.938,0.953v5.275c0,2.646,1.646,4.321,4.384,4.321
		c2.737,0,4.383-1.676,4.383-4.321v-5.275c0-0.521-0.416-0.953-0.938-0.953s-0.938,0.432-0.938,0.953V58.191z M131.343,55.038
		c0,0.691-0.461,1.384-1.492,1.384h-3.198v-2.814h3.198C130.882,53.607,131.343,54.361,131.343,55.038 M133.234,55.038
		c0-1.738-1.093-3.153-3.646-3.153h-3.875c-0.522,0-0.938,0.415-0.938,0.938v8.49c0,0.523,0.416,0.938,0.938,0.938
		s0.938-0.415,0.938-0.938V58.16h2.937C132.142,58.16,133.234,56.775,133.234,55.038 M116.194,58.191c0,1.43-0.861,2.43-2.507,2.43
		c-1.646,0-2.507-1-2.507-2.43v-5.477c0-0.521-0.415-0.953-0.938-0.953s-0.938,0.432-0.938,0.953v5.275
		c0,2.646,1.645,4.321,4.383,4.321c2.737,0,4.383-1.676,4.383-4.321v-5.275c0-0.521-0.415-0.953-0.938-0.953
		c-0.522,0-0.938,0.432-0.938,0.953V58.191z M103.521,52.777c0-0.492-0.4-0.893-0.892-0.893h-7.152c-0.507,0-0.892,0.4-0.892,0.893
		c0,0.477,0.4,0.877,0.892,0.877h2.646v7.643c0,0.523,0.4,0.954,0.923,0.954c0.522,0,0.953-0.431,0.953-0.954v-7.643h2.63
		C103.137,53.654,103.521,53.253,103.521,52.777"/>
</g>
</svg>
